<svg id="wave" style="transform:rotate(180deg); transition: 0.3s" viewBox="0 0 1440 490" version="1.1" xmlns="http://www.w3.org/2000/svg"><defs><linearGradient id="sw-gradient-0" x1="0" x2="0" y1="1" y2="0"><stop stop-color="rgba(166, 65, 92, 1)" offset="0%"></stop><stop stop-color="rgba(115, 32, 93, 1)" offset="100%"></stop></linearGradient></defs><path style="transform:translate(0, 0px); opacity:1" fill="url(#sw-gradient-0)" d="M0,0L34.3,49C68.6,98,137,196,206,196C274.3,196,343,98,411,73.5C480,49,549,98,617,122.5C685.7,147,754,147,823,187.8C891.4,229,960,310,1029,343C1097.1,376,1166,359,1234,359.3C1302.9,359,1371,376,1440,367.5C1508.6,359,1577,327,1646,310.3C1714.3,294,1783,294,1851,302.2C1920,310,1989,327,2057,294C2125.7,261,2194,180,2263,130.7C2331.4,82,2400,65,2469,98C2537.1,131,2606,212,2674,245C2742.9,278,2811,261,2880,277.7C2948.6,294,3017,343,3086,302.2C3154.3,261,3223,131,3291,98C3360,65,3429,131,3497,147C3565.7,163,3634,131,3703,130.7C3771.4,131,3840,163,3909,187.8C3977.1,212,4046,229,4114,196C4182.9,163,4251,82,4320,89.8C4388.6,98,4457,196,4526,245C4594.3,294,4663,294,4731,310.3C4800,327,4869,359,4903,375.7L4937.1,392L4937.1,490L4902.9,490C4868.6,490,4800,490,4731,490C4662.9,490,4594,490,4526,490C4457.1,490,4389,490,4320,490C4251.4,490,4183,490,4114,490C4045.7,490,3977,490,3909,490C3840,490,3771,490,3703,490C3634.3,490,3566,490,3497,490C3428.6,490,3360,490,3291,490C3222.9,490,3154,490,3086,490C3017.1,490,2949,490,2880,490C2811.4,490,2743,490,2674,490C2605.7,490,2537,490,2469,490C2400,490,2331,490,2263,490C2194.3,490,2126,490,2057,490C1988.6,490,1920,490,1851,490C1782.9,490,1714,490,1646,490C1577.1,490,1509,490,1440,490C1371.4,490,1303,490,1234,490C1165.7,490,1097,490,1029,490C960,490,891,490,823,490C754.3,490,686,490,617,490C548.6,490,480,490,411,490C342.9,490,274,490,206,490C137.1,490,69,490,34,490L0,490Z"></path></svg>